<mxfile host="app.diagrams.net" modified="2023-08-16T19:52:17.983Z" agent="Mozilla/5.0 (Macintosh; Intel Mac OS X 10_15_7) AppleWebKit/605.1.15 (KHTML, like Gecko) Version/16.1 Safari/605.1.15" version="21.6.8" etag="hgaGzwFdng5H2YGyn9cT" type="github">
  <diagram name="Page-1" id="Z6O8yHFazTeHV5C1vA0M">
    <mxGraphModel>
      <root>
        <mxCell id="0" />
        <mxCell id="1" parent="0" />
      </root>
    </mxGraphModel>
  </diagram>
</mxfile>
